<svg id="Layer_1" data-name="Layer 1" xmlns="http://www.w3.org/2000/svg" viewBox="0 0 2940.26 1185"><defs><style>.cls-1{fill:#fff;}</style></defs><rect x="18.91" y="7.18" width="1170.65" height="1170.65" rx="31.58"/><path d="M1488.45,539c6.36,0,11.58,3.86,13.63,10.22L1565,748.67h-38.84l-17.49-59.28H1431l-17.26,59.28h-38.84l62.68-199.42c2.28-6.36,7.5-10.22,13.86-10.22ZM1461,585.82l-20.9,72.45h59.51l-20.9-72.45c-1.59-5.68-3.63-12-4.54-17.94H1466Z"/><path d="M1623.36,586.27c0,12.72-.46,23.63-3.63,34.53,15.44-16.35,35-25.21,54.73-25.21,37,0,54.29,22.26,54.29,77.67,0,47.7-14.31,79-69.73,79-20.9,0-53.61-3.63-72.68-11.13V536.08h37Zm0,57v75.86a136.11,136.11,0,0,0,34.75,3.64c23.62-.23,32.7-11.81,32.7-49.52,0-35.2-5.22-46.56-30.43-46.56C1647.21,626.7,1636.76,633.52,1623.36,643.28Z"/><path d="M1870,748.67l-3-20.44c-13.4,12.49-33.39,24.07-57.69,24.07-37.7,0-52.24-28.62-52.24-79,0-59,19.31-77.67,57-77.67,17.71,0,35,4.09,49.51,13.17a256.93,256.93,0,0,1-1.59-29.75V536.08h37.25V748.67Zm-75-75.63c0,39.29,8.18,47.92,27.93,47.92,14.77,0,22.72-4.54,39.07-15.44V631.7c-13.17-3.18-23.62-5.91-37-5.91C1803.24,625.79,1795.06,633.06,1795.06,673Z"/><path d="M2073.51,647.14c0,26.8-12.26,42.7-40,42.7H1972.9c2.95,27,14.3,32.48,39.74,32.48,14.31,0,35.66-1.59,53.38-3.63l3.41,23.62c-15.68,7.49-42.48,10-61.33,10-54,0-74.27-21.8-74.27-78.36,0-58.82,21.35-78.35,71.77-78.35C2054,595.59,2073.51,613.53,2073.51,647.14ZM1972.22,664h51.1c11.81,0,13.4-9.31,13.4-17.26,0-15.9-6.82-21.8-29.53-21.8C1981.75,624.89,1973.12,632.61,1972.22,664Z"/><path d="M2144.15,702.11c0,12,5.9,17.49,17.71,17.49h12.72l4.31,27.25c-6.81,3.41-23.16,5.22-31.57,5.22-24.75,0-40.2-14.53-40.2-40.65V536.08h37Z"/><path d="M2307,533.13,2304,559.25h-29.3c-16.58,0-22.26,5.68-22.26,20.89V599.9h43.38v26.8h-43.38v122h-37.24v-122h-26.35V601.49l26.35-1.59V575.37c0-27.71,12.26-45,46.55-45C2272,530.4,2294.5,530.86,2307,533.13Z"/><path d="M2451.44,647.6V748.67h-29.08L2418.5,726c-10.67,11.81-30.2,26.11-56.78,26.11-27.48,0-47.24-15.21-47.24-43.15V693.7c0-23.62,16.13-37.24,44.06-37.24h55.88v-9.32c0-16.8-5.91-21.12-27.26-21.12-13.63,0-38.84,1.14-62.23,3l-3.63-26.12c21.12-3.86,54.73-7.26,74.26-7.26C2432.36,595.59,2451.44,607.85,2451.44,647.6Zm-84.27,34.07c-12.26,0-15.9,6.58-15.9,16.58v5.67c0,13,6.14,18.4,19.54,18.4,11.58,0,28.62-5.22,43.61-17.71V681.67Z"/><path d="M2584.76,599.9v26.8h-43.61v75.41c0,13.17,4.54,17.49,17.94,17.49h20.21l4.09,27.25c-10.44,3.41-29.3,5.22-38.38,5.22-26.12,0-40.43-15.89-40.43-43.38v-82h-27V601.49l26.8-1.59V557h36.8V599.9Z"/><path d="M2742.38,647.6V748.67H2713.3L2709.44,726c-10.67,11.81-30.2,26.11-56.78,26.11-27.48,0-47.24-15.21-47.24-43.15V693.7c0-23.62,16.13-37.24,44.06-37.24h55.88v-9.32c0-16.8-5.91-21.12-27.26-21.12-13.63,0-38.84,1.14-62.23,3l-3.64-26.12c21.13-3.86,54.74-7.26,74.27-7.26C2723.3,595.59,2742.38,607.85,2742.38,647.6Zm-84.27,34.07c-12.26,0-15.89,6.58-15.89,16.58v5.67c0,13,6.13,18.4,19.53,18.4,11.58,0,28.62-5.22,43.61-17.71V681.67Z"/><path d="M2819.82,590.82a193.5,193.5,0,0,1-2.27,30c20.67-15.67,41.79-25.21,62.69-25.21,26.57,0,41.11,14.53,41.11,41.33V748.67h-37V648.05c0-16.58-4.09-21.12-15.9-21.12-14.54,0-28.39,6.36-48.83,18.17V748.67h-37V536.08h37.25Z"/><path d="M1488.45,947.85c6.36,0,11.58,3.86,13.63,10.22L1565,1157.49h-38.84l-17.49-59.28H1431l-17.26,59.28h-38.84l62.68-199.42c2.28-6.36,7.5-10.22,13.86-10.22ZM1461,994.64l-20.9,72.45h59.51l-20.9-72.45c-1.59-5.68-3.63-12-4.54-17.94H1466Z"/><path d="M1706,1009.86l-2.72,25.66c-18.86-.68-37.93-1.36-56.79-1.36-25,0-31.56.45-31.56,12.72,0,11.81,6.36,12.26,20.21,16.12l40.2,10.91c24.53,6.81,35.43,16.8,35.43,42.92,0,36.34-20,44.06-66.32,44.06a391.68,391.68,0,0,1-62.23-5l2.27-25.67c11.81.91,31.57,1.14,50.65,1.14,31.79,0,40.2-2.5,40.2-14.31,0-11.13-7.95-12-21.8-16.12l-39.3-10.45c-26.34-7.5-35-20.22-35-43.84,0-32.7,17-42.47,60.87-42.24A468.75,468.75,0,0,1,1706,1009.86Z"/><path d="M1781.21,999.64a194.74,194.74,0,0,1-2.27,30c20.66-15.67,41.78-25.21,62.68-25.21,26.58,0,41.11,14.53,41.11,41.33v111.75h-37V1056.87c0-16.58-4.09-21.12-15.9-21.12-14.54,0-28.39,6.36-48.83,18.17v103.57h-37V944.9h37.25Z"/><path d="M2063.52,1083c0,57.24-19.76,78.36-73.36,78.36s-73.59-21.12-73.59-78.36c0-57,20-78.58,73.59-78.58S2063.52,1026,2063.52,1083ZM1955,1083c0,38.39,8,49.06,35.21,49.06,26.8,0,35-10.67,35-49.06s-8.18-49.06-35-49.06C1962.9,1033.93,1955,1044.61,1955,1083Z"/><path d="M2203.43,1157.49l-2.73-20c-21.35,16.13-41.11,23.85-62.23,23.85-27,0-41.33-13.86-41.33-41.11V1008.72h37v100.39c0,15.9,4.31,21.12,18.17,21.12,12.72,0,25.21-5.9,43.38-16.58V1008.72h36.79v148.77Z"/><path d="M2360.14,1039.16c-14.31,0-27.94,4.77-49.29,13.17v105.16h-37V1008.72h28.85l3.4,21.81c20.22-16.58,41.79-26.12,61.33-26.12h7.26l-4.08,34.75Z"/><path class="cls-1" d="M385.7,990.8l94.48,36.34V1056l-125.6-50.65V976.5l125.6-51.33v29.07Z"/><path class="cls-1" d="M665.74,872.25c6.36,0,11.58,3.86,13.62,10.22l62.92,199.41H703.44L686,1022.6H608.27L591,1081.88H552.17l62.69-199.41c2.27-6.36,7.5-10.22,13.86-10.22ZM638.26,919l-20.9,72.46h59.51L656,919c-1.59-5.67-3.63-12-4.54-17.94h-8.18Z"/><path class="cls-1" d="M858.79,872.25c6.36,0,11.58,3.86,13.63,10.22l62.91,199.41H896.49L879,1022.6H801.32l-17.26,59.28H745.23l62.68-199.41c2.27-6.36,7.5-10.22,13.86-10.22ZM831.31,919l-20.9,72.46h59.51L849,919c-1.59-5.67-3.63-12-4.54-17.94H836.3Z"/><path class="cls-1" d="M1132.92,1005.34,1007.09,1056v-28.85l94.49-36.34-94.49-36.56V925.17l125.83,51.33Z"/></svg>