<svg id="Layer_1" data-name="Layer 1" xmlns="http://www.w3.org/2000/svg" viewBox="0 0 1080 1080"><defs><style>.cls-1{fill:#fff;}</style></defs><rect x="17.22" y="17.22" width="1045.57" height="1045.57" rx="31.58"/><path class="cls-1" d="M344.81,895.74,429.2,928.2V954L317,908.73V883L429.2,837.12v26Z"/><path class="cls-1" d="M594.93,789.86A12.53,12.53,0,0,1,607.1,799l56.19,178.11H628.6l-15.62-53H543.6l-15.41,53H493.5l56-178.11c2-5.68,6.69-9.12,12.37-9.12Zm-24.55,41.78-18.66,64.71h53.15L586.2,831.64c-1.42-5.07-3.24-10.75-4.05-16h-7.31Z"/><path class="cls-1" d="M767.35,789.86A12.52,12.52,0,0,1,779.52,799l56.19,178.11H801l-15.62-53H716l-15.42,53H665.92l56-178.11c2-5.68,6.7-9.12,12.37-9.12Zm-24.54,41.78-18.67,64.71h53.15l-18.66-64.71c-1.42-5.07-3.25-10.75-4.06-16h-7.3Z"/><path class="cls-1" d="M1012.19,908.73,899.81,954V928.2l84.39-32.46-84.39-32.65v-26L1012.19,883Z"/></svg>